<svg height="600" width="600" xmlns="http://www.w3.org/2000/svg">
<title>Your Diagram Title</title>
<!-- Generated with SankeyMATIC: 10/11/2022, 10:53:08 AM -->
<rect height="600" width="600" fill="#ffffff"></rect>
<g transform="translate(12,18)">
<g id="sankey_flows">
<path id="flow0" d="M9 196.42372C146.25 196.42372 146.25 170.09858 283.5 170.09858" fill="none" stroke-width="114.4" stroke="#17becf" opacity="0.45"><title>Bicycle → Drivetrain: 100</title></path>
<path id="flow1" d="M9 296.52372C146.25 296.52372 146.25 300.86525 283.5 300.86525" fill="none" stroke-width="85.8" stroke="#17becf" opacity="0.45"><title>Bicycle → Brakes: 75</title></path>
<path id="flow2" d="M9 382.32372C146.25 382.32372 146.25 417.33191 283.5 417.33191" fill="none" stroke-width="85.8" stroke="#17becf" opacity="0.45"><title>Bicycle → Frame: 75</title></path>
<path id="flow3" d="M292.5 127.19858C429.75 127.19858 429.75 14.3 567 14.3" fill="none" stroke-width="28.6" stroke="#d62728" opacity="0.45"><title>Drivetrain → Pedals: 25</title></path>
<path id="flow4" d="M292.5 155.79858C429.75 155.79858 429.75 73.56667 567 73.56667" fill="none" stroke-width="28.6" stroke="#9467bd" opacity="0.45"><title>Drivetrain → Chain: 25</title></path>
<path id="flow5" d="M292.5 184.39858C429.75 184.39858 429.75 132.83333 567 132.83333" fill="none" stroke-width="28.6" stroke="#8c564b" opacity="0.45"><title>Drivetrain → Crankset: 25</title></path>
<path id="flow6" d="M292.5 212.99858C429.75 212.99858 429.75 192.1 567 192.1" fill="none" stroke-width="28.6" stroke="#e377c2" opacity="0.45"><title>Drivetrain → Rear Sprocket: 25</title></path>
<path id="flow7" d="M292.5 272.26525C429.75 272.26525 429.75 251.36667 567 251.36667" fill="none" stroke-width="28.6" stroke="#7f7f7f" opacity="0.45"><title>Brakes → Brake Cable: 25</title></path>
<path id="flow8" d="M292.5 300.86525C429.75 300.86525 429.75 310.63333 567 310.63333" fill="none" stroke-width="28.6" stroke="#7f7f7f" opacity="0.45"><title>Brakes → Brake Calipers: 25</title></path>
<path id="flow9" d="M292.5 329.46525C429.75 329.46525 429.75 369.9 567 369.9" fill="none" stroke-width="28.6" stroke="#7f7f7f" opacity="0.45"><title>Brakes → Brake Disc: 25</title></path>
<path id="flow10" d="M292.5 388.73191C429.75 388.73191 429.75 429.16667 567 429.16667" fill="none" stroke-width="28.6" stroke="#bcbd22" opacity="0.45"><title>Frame → Head Tube: 25</title></path>
<path id="flow11" d="M292.5 417.33191C429.75 417.33191 429.75 488.43333 567 488.43333" fill="none" stroke-width="28.6" stroke="#17becf" opacity="0.45"><title>Frame → Down Tube: 25</title></path>
<path id="flow12" d="M292.5 445.93191C429.75 445.93191 429.75 547.7 567 547.7" fill="none" stroke-width="28.6" stroke="#1f77b4" opacity="0.45"><title>Frame → Bottom Bracket Shell: 25</title></path>
</g>
<g id="sankey_nodes">
<g class="node">
<rect id="r0" class="for_r0" x="0" y="139.22372" height="286" width="9" fill="#17becf" fill-opacity="1"><title>Bicycle:
250</title></rect>
</g>
<g class="node">
<rect id="r1" class="for_r1" x="283.5" y="112.89858" height="114.4" width="9" fill="#1f77b4" fill-opacity="1"><title>Drivetrain:
100</title></rect>
</g>
<g class="node">
<rect id="r2" class="for_r2" x="283.5" y="257.96525" height="85.8" width="9" fill="#ff7f0e" fill-opacity="1"><title>Brakes:
75</title></rect>
</g>
<g class="node">
<rect id="r3" class="for_r3" x="283.5" y="374.43191" height="85.8" width="9" fill="#2ca02c" fill-opacity="1"><title>Frame:
75</title></rect>
</g>
<g class="node">
<rect id="r4" class="for_r4" x="567" y="0" height="28.6" width="9" fill="#d62728" fill-opacity="1"><title>Pedals:
25</title></rect>
</g>
<g class="node">
<rect id="r5" class="for_r5" x="567" y="59.26667" height="28.6" width="9" fill="#9467bd" fill-opacity="1"><title>Chain:
25</title></rect>
</g>
<g class="node">
<rect id="r6" class="for_r6" x="567" y="118.53333" height="28.6" width="9" fill="#8c564b" fill-opacity="1"><title>Crankset:
25</title></rect>
</g>
<g class="node">
<rect id="r7" class="for_r7" x="567" y="177.8" height="28.6" width="9" fill="#e377c2" fill-opacity="1"><title>Rear Sprocket:
25</title></rect>
</g>
<g class="node">
<rect id="r8" class="for_r8" x="567" y="237.06667" height="28.6" width="9" fill="#7f7f7f" fill-opacity="1"><title>Brake Cable:
25</title></rect>
</g>
<g class="node">
<rect id="r9" class="for_r9" x="567" y="296.33333" height="28.6" width="9" fill="#7f7f7f" fill-opacity="1"><title>Brake Calipers:
25</title></rect>
</g>
<g class="node">
<rect id="r10" class="for_r10" x="567" y="355.6" height="28.6" width="9" fill="#7f7f7f" fill-opacity="1"><title>Brake Disc:
25</title></rect>
</g>
<g class="node">
<rect id="r11" class="for_r11" x="567" y="414.86667" height="28.6" width="9" fill="#bcbd22" fill-opacity="1"><title>Head Tube:
25</title></rect>
</g>
<g class="node">
<rect id="r12" class="for_r12" x="567" y="474.13333" height="28.6" width="9" fill="#17becf" fill-opacity="1"><title>Down Tube:
25</title></rect>
</g>
<g class="node">
<rect id="r13" class="for_r13" x="567" y="533.4" height="28.6" width="9" fill="#1f77b4" fill-opacity="1"><title>Bottom Bracket Shell:
25</title></rect>
</g>
</g>
<g id="sankey_labels" font-family="sans-serif" font-size="15px" font-weight="400" fill="#000000">
<text text-anchor="middle" x="288" y="577" font-size="11px" font-weight="400" fill="rgb(127, 127, 127)">Made with SankeyMATIC</text>
<rect id="label0_bg" class="for_r0" x="10.53125" y="270.75372" width="56.64063" height="21.8" rx="3.75" fill="#fff" fill-opacity="0.55" stroke="none" stroke-width="0" stroke-opacity="0"></rect>
<text id="label0" class="for_r0" text-anchor="start" x="14.90625" y="282.22372" dy="4.93">Bicycle</text>
<rect id="label1_bg" class="for_r1" x="208.65625" y="158.62858" width="73.3125" height="21.8" rx="3.75" fill="#fff" fill-opacity="0.55" stroke="none" stroke-width="0" stroke-opacity="0"></rect>
<text id="label1" class="for_r1" text-anchor="end" x="277.59375" y="170.09858" dy="4.93">Drivetrain</text>
<rect id="label2_bg" class="for_r2" x="226.15625" y="289.39526" width="55.8125" height="21.8" rx="3.75" fill="#fff" fill-opacity="0.55" stroke="none" stroke-width="0" stroke-opacity="0"></rect>
<text id="label2" class="for_r2" text-anchor="end" x="277.59375" y="300.86525" dy="4.93">Brakes</text>
<rect id="label3_bg" class="for_r3" x="229.5" y="405.8619" width="52.46875" height="21.8" rx="3.75" fill="#fff" fill-opacity="0.55" stroke="none" stroke-width="0" stroke-opacity="0"></rect>
<text id="label3" class="for_r3" text-anchor="end" x="277.59375" y="417.33191" dy="4.93">Frame</text>
<rect id="label4_bg" class="for_r4" x="510.46875" y="2.83" width="55" height="21.8" rx="3.75" fill="#fff" fill-opacity="0.55" stroke="none" stroke-width="0" stroke-opacity="0"></rect>
<text id="label4" class="for_r4" text-anchor="end" x="561.09375" y="14.3" dy="4.93">Pedals</text>
<rect id="label5_bg" class="for_r5" x="517.14063" y="62.09667" width="48.32813" height="21.8" rx="3.75" fill="#fff" fill-opacity="0.55" stroke="none" stroke-width="0" stroke-opacity="0"></rect>
<text id="label5" class="for_r5" text-anchor="end" x="561.09375" y="73.56667" dy="4.93">Chain</text>
<rect id="label6_bg" class="for_r6" x="496.3125" y="121.36332" width="69.97949" height="21.8" rx="3.75" fill="#fff" fill-opacity="0.55" stroke="none" stroke-width="0" stroke-opacity="0"></rect>
<text id="label6" class="for_r6" text-anchor="end" x="561.09375" y="132.83333" dy="4.93">Crankset</text>
<rect id="label7_bg" class="for_r7" x="460.46875" y="180.63" width="105.83154" height="21.8" rx="3.75" fill="#fff" fill-opacity="0.55" stroke="none" stroke-width="0" stroke-opacity="0"></rect>
<text id="label7" class="for_r7" text-anchor="end" x="561.09375" y="192.1" dy="4.93">Rear Sprocket</text>
<rect id="label8_bg" class="for_r8" x="473.79688" y="239.89666" width="91.67188" height="21.8" rx="3.75" fill="#fff" fill-opacity="0.55" stroke="none" stroke-width="0" stroke-opacity="0"></rect>
<text id="label8" class="for_r8" text-anchor="end" x="561.09375" y="251.36667" dy="4.93">Brake Cable</text>
<rect id="label9_bg" class="for_r9" x="457.96875" y="299.16332" width="107.5" height="21.8" rx="3.75" fill="#fff" fill-opacity="0.55" stroke="none" stroke-width="0" stroke-opacity="0"></rect>
<text id="label9" class="for_r9" text-anchor="end" x="561.09375" y="310.63333" dy="4.93">Brake Calipers</text>
<rect id="label10_bg" class="for_r10" x="483.8125" y="358.42999" width="82.14209" height="21.8" rx="3.75" fill="#fff" fill-opacity="0.55" stroke="none" stroke-width="0" stroke-opacity="0"></rect>
<text id="label10" class="for_r10" text-anchor="end" x="561.09375" y="369.9" dy="4.93">Brake Disc</text>
<rect id="label11_bg" class="for_r11" x="482.95313" y="417.69665" width="82.51563" height="21.8" rx="3.75" fill="#fff" fill-opacity="0.55" stroke="none" stroke-width="0" stroke-opacity="0"></rect>
<text id="label11" class="for_r11" text-anchor="end" x="561.09375" y="429.16667" dy="4.93">Head Tube</text>
<rect id="label12_bg" class="for_r12" x="480.45313" y="476.96331" width="85.01563" height="21.8" rx="3.75" fill="#fff" fill-opacity="0.55" stroke="none" stroke-width="0" stroke-opacity="0"></rect>
<text id="label12" class="for_r12" text-anchor="end" x="561.09375" y="488.43333" dy="4.93">Down Tube</text>
<rect id="label13_bg" class="for_r13" x="416.28125" y="536.23" width="149.1875" height="21.8" rx="3.75" fill="#fff" fill-opacity="0.55" stroke="none" stroke-width="0" stroke-opacity="0"></rect>
<text id="label13" class="for_r13" text-anchor="end" x="561.09375" y="547.7" dy="4.93">Bottom Bracket Shell</text>
</g>
</g></svg>